<svg xmlns="http://www.w3.org/2000/svg" xmlns:xlink="http://www.w3.org/1999/xlink" version="1.1" x="0px" y="0px" viewBox="0 0 16 20" enable-background="new 0 0 16 16" xml:space="preserve"><symbol viewBox="-4.9 -7.2 9.8 14.4"><path fill="#000000" d="M0,7.2c-2.7,0-4.9-2.2-4.9-4.9c0-0.1,0-0.1,0-0.2c0-0.5,0.1-1,0.3-1.5C-3.6-2.7,0-7.2,0-7.2   s3.6,4.5,4.6,7.9c0.2,0.5,0.3,1,0.3,1.5c0,0.1,0,0.1,0,0.2C4.9,5,2.7,7.2,0,7.2z M0-0.1c-1.3,0-2.4,1.1-2.4,2.4   c0,1.3,1.1,2.4,2.4,2.4c1.3,0,2.4-1.1,2.4-2.4C2.4,1,1.3-0.1,0-0.1z"/></symbol><symbol viewBox="-5 -5.2 10 10.4"><g><path fill="#000000" d="M-4.5-4.7l0,0.5c0.1,1.7,1.1,3.1,2.6,3.8l0,0l0.5,0.1l0.1,0.1C-2,0.3-2.6,1.1-2.6,2.1    c0,1.4,1.2,2.6,2.6,2.6c1.4,0,2.6-1.2,2.6-2.6c0-1-0.6-1.9-1.4-2.3l0.3-0.1l0.4-0.1l0,0c1.4-0.7,2.4-2.1,2.5-3.7l0-0.5H-4.5z"/><path fill="#000000" d="M0,4.2c1.2,0,2.1-0.9,2.1-2.1S1.2,0,0,0S-2.1,1-2.1,2.1S-1.2,4.2,0,4.2 M0-0.5c0.4,0,0.9-0.1,1.2-0.2    C1-1.2,0.6-1.5,0-1.5c-0.1,0-0.2,0-0.3,0c-0.1,0-0.2,0.1-0.3,0.1c0,0-0.1,0-0.1,0.1c0,0,0,0,0,0c-0.2,0.1-0.3,0.3-0.4,0.5    C-0.8-0.6-0.4-0.5,0-0.5 M-1.3-0.7C-1.2-0.9-1.1-1-1-1.1c0,0,0,0,0,0c-0.2,0-0.3-0.1-0.5-0.2c-0.1-0.1-0.2-0.3-0.2-0.4    c0-0.2,0-0.4,0.1-0.5c0.1-0.2,0.3-0.3,0.5-0.3c0.2,0,0.4,0,0.6,0c0.2,0,0.4,0,0.5-0.1c0.1,0,0.2-0.1,0.2-0.1    C0.3-2.9,0.4-3,0.4-3.1c0,0,0,0,0,0C0.2-3.1,0.1-3.2,0-3.4C0-3.6,0.1-3.8,0.3-3.9c0,0,0.1,0,0.1,0c0.2,0,0.3,0.1,0.4,0.3    c0.1,0.2-0.1,0.4-0.2,0.5c0,0,0,0.1,0,0.1c0,0.1-0.1,0.2-0.2,0.3C0.3-2.7,0.2-2.6,0.1-2.6c-0.2,0.1-0.4,0.1-0.6,0.1    s-0.4,0-0.6,0.1c-0.2,0-0.3,0.1-0.4,0.2c-0.1,0.1-0.1,0.2-0.1,0.4s0.1,0.3,0.2,0.4c0.1,0.1,0.2,0.1,0.4,0.1c0,0,0,0,0,0    c0.1,0,0.1,0,0.2,0c0,0,0,0,0,0c0,0,0.1-0.1,0.1-0.1c0,0,0,0,0,0c0.1-0.1,0.2-0.1,0.3-0.1c0.1,0,0.3,0,0.4,0    c0.6,0,1.1,0.3,1.3,0.9c1.4-0.5,2.5-1.9,2.6-3.5H2.3c0.1,0.7-0.2,1.3-0.6,1.7C2-2.9,2.1-3.4,2-3.9c0-0.1-0.1-0.2-0.1-0.3h-3.8    C-1.9-4.1-1.9-4-2-3.9c-0.1,0.5,0,1,0.3,1.4c-0.5-0.4-0.7-1.1-0.6-1.7H-4C-3.8-2.6-2.8-1.2-1.3-0.7 M0.9-2L0.6-2c0,0,0,0,0,0    c0,0-0.1,0-0.1-0.1l0-0.1c0,0,0-0.1,0-0.1l0.3-0.1L0.8-2.6c0,0,0-0.1,0-0.1l0.1,0c0,0,0,0,0,0c0,0,0.1,0,0.1,0.1l0.1,0.3l0.3-0.1    c0,0,0,0,0,0c0,0,0.1,0,0.1,0.1l0,0.1c0,0,0,0.1,0,0.1L1.2-2.1l0.1,0.3c0,0,0,0.1,0,0.1l-0.1,0c0,0,0,0,0,0c0,0-0.1,0-0.1-0.1    L0.9-2 M0,5.2c-1.7,0-3.1-1.4-3.1-3.1c0-0.8,0.3-1.6,0.8-2.1l-0.2-0.1l0-0.1c-1.4-0.8-2.4-2.3-2.5-4L-5-5.2H-4h1.6h1.2h3h0.7h1.4    H5L4.9-4.2c-0.1,1.6-1,3.1-2.4,3.9l0.1,0.1L2.3,0c0.5,0.6,0.8,1.3,0.8,2.1C3.1,3.8,1.7,5.2,0,5.2L0,5.2z"/></g></symbol><g><path fill="#000000" d="M14,4.2h-2.7c0-1.1-0.8-2.2-1.9-2.2H6.6C5.5,2,4.7,3.1,4.7,4.2H2C0.9,4.2,0.2,4.9,0.2,6V12c0,1.1,0.9,2,2,2   h11.5c1.1,0,2-0.9,2-2V6C15.8,4.9,15.1,4.2,14,4.2z M7.4,12.1C6.1,11.8,5.2,10.7,5,9.3H4.2l1.1-1.1l1.1,1.1H5.6   c0.2,1,0.9,1.9,2,2.2c1.2,0.3,2.4-0.3,2.9-1.3h0.6h0C10.5,11.7,9,12.5,7.4,12.1z M11.2,9.5l-1.1-1.1h0.8c-0.2-1-0.9-1.9-2-2.2   c-1.2-0.3-2.4,0.3-3,1.4l-0.6,0C5.9,6.1,7.4,5.3,9,5.6c1.3,0.3,2.2,1.5,2.4,2.8h0.8L11.2,9.5z"/></g><text x="0" y="31" fill="#000000" font-size="5px" font-weight="bold" font-family="'Helvetica Neue', Helvetica, Arial-Unicode, Arial, Sans-serif">Created by kamaksh</text><text x="0" y="36" fill="#000000" font-size="5px" font-weight="bold" font-family="'Helvetica Neue', Helvetica, Arial-Unicode, Arial, Sans-serif">from the Noun Project</text></svg>